<svg xmlns="http://www.w3.org/2000/svg" style="display: none;"> 

<symbol id="password" viewBox="0 0 24 24" fill="none">
<path d="M10.7331 5.07599C13.0625 4.7984 15.4187 5.29081 17.442 6.47804C19.4653 7.66527 21.0444 9.48207 21.9381 11.651C22.0215 11.8755 22.0215 12.1225 21.9381 12.347C21.5701 13.2377 21.0844 14.0751 20.4941 14.837M14.0841 14.158C13.5183 14.7045 12.7605 15.0068 11.9739 15C11.1873 14.9932 10.4349 14.6777 9.87868 14.1214C9.32245 13.5652 9.00695 12.8128 9.00011 12.0262C8.99328 11.2396 9.29566 10.4818 9.84214 9.91599" stroke="currentcolor" stroke-width="2" stroke-linecap="round" stroke-linejoin="round"/>
<path d="M17.4795 17.499C16.153 18.2848 14.673 18.776 13.1399 18.9394C11.6068 19.1028 10.0565 18.9345 8.59414 18.4459C7.13182 17.9573 5.7917 17.1599 4.66472 16.1077C3.53773 15.0556 2.65026 13.7734 2.06251 12.348C1.97916 12.1235 1.97916 11.8765 2.06251 11.652C2.94914 9.50186 4.50918 7.69725 6.50851 6.509M2.00051 2L22.0005 22" stroke="currentcolor" stroke-width="2" stroke-linecap="round" stroke-linejoin="round"/>
</symbol>

<symbol id="password-off" viewBox="0 0 24 24" fill="none">
<path d="M2.06251 12.3479C1.97916 12.1234 1.97916 11.8764 2.06251 11.6519C2.87421 9.68373 4.25202 8.00091 6.02128 6.81677C7.79053 5.63263 9.87155 5.00049 12.0005 5.00049C14.1295 5.00049 16.2105 5.63263 17.9797 6.81677C19.749 8.00091 21.1268 9.68373 21.9385 11.6519C22.0218 11.8764 22.0218 12.1234 21.9385 12.3479C21.1268 14.316 19.749 15.9988 17.9797 17.183C16.2105 18.3671 14.1295 18.9993 12.0005 18.9993C9.87155 18.9993 7.79053 18.3671 6.02128 17.183C4.25202 15.9988 2.87421 14.316 2.06251 12.3479Z" stroke="currentcolor" stroke-width="2" stroke-linecap="round" stroke-linejoin="round"/>
<path d="M12 15C13.6569 15 15 13.6569 15 12C15 10.3431 13.6569 9 12 9C10.3431 9 9 10.3431 9 12C9 13.6569 10.3431 15 12 15Z" stroke="currentcolor" stroke-width="2" stroke-linecap="round" stroke-linejoin="round"/>
</symbol>

<symbol id="cart" viewBox="0 0 24 24" fill="none">
<path d="M8 22C8.55228 22 9 21.5523 9 21C9 20.4477 8.55228 20 8 20C7.44772 20 7 20.4477 7 21C7 21.5523 7.44772 22 8 22Z" stroke="currentcolor" stroke-width="2" stroke-linecap="round" stroke-linejoin="round"/>
<path d="M19 22C19.5523 22 20 21.5523 20 21C20 20.4477 19.5523 20 19 20C18.4477 20 18 20.4477 18 21C18 21.5523 18.4477 22 19 22Z" stroke="currentcolor" stroke-width="2" stroke-linecap="round" stroke-linejoin="round"/>
<path d="M2.05078 2.0498H4.05078L6.71078 14.4698C6.80836 14.9247 7.06145 15.3313 7.42649 15.6197C7.79153 15.908 8.24569 16.0602 8.71078 16.0498H18.4908C18.946 16.0491 19.3873 15.8931 19.7418 15.6076C20.0964 15.3222 20.3429 14.9243 20.4408 14.4798L22.0908 7.0498H5.12078" stroke="currentcolor" stroke-width="2" stroke-linecap="round" stroke-linejoin="round"/>
</symbol>


<symbol id="user" viewBox="0 0 24 24" fill="none">
<path d="M18 20C18 18.4087 17.3679 16.8826 16.2426 15.7574C15.1174 14.6321 13.5913 14 12 14C10.4087 14 8.88258 14.6321 7.75736 15.7574C6.63214 16.8826 6 18.4087 6 20" stroke="currentcolor" stroke-width="2" stroke-linecap="round" stroke-linejoin="round"/>
<path d="M12 14C14.2091 14 16 12.2091 16 10C16 7.79086 14.2091 6 12 6C9.79086 6 8 7.79086 8 10C8 12.2091 9.79086 14 12 14Z" stroke="currentcolor" stroke-width="2" stroke-linecap="round" stroke-linejoin="round"/>
<path d="M12 22C17.5228 22 22 17.5228 22 12C22 6.47715 17.5228 2 12 2C6.47715 2 2 6.47715 2 12C2 17.5228 6.47715 22 12 22Z" stroke="currentcolor" stroke-width="2" stroke-linecap="round" stroke-linejoin="round"/>
</symbol>

</svg>